<svg width="256" height="60" viewBox="0 0 256 60" fill="none" xmlns="http://www.w3.org/2000/svg">
<g clip-path="url(#clip0_124_15)">
<path d="M171 17L172.781 2.75C172.906 1.75 173.756 1 174.769 1L185.306 1C186.244 1 187 1.75625 187 2.69375C187 2.89375 186.963 3.1 186.894 3.2875L184 11L192.706 11C193.969 11 195 12.025 195 13.2937C195 13.7562 194.863 14.2062 194.6 14.5875L182.587 32.15C182.219 32.6875 181.613 33.0062 180.969 33.0062H180.788C179.806 33.0062 179.006 32.2062 179.006 31.225C179.006 31.0812 179.025 30.9375 179.063 30.7937L182 19L173 19C171.894 19 171 18.1062 171 17Z" fill="#FFB454"/>
</g>
<path d="M15.096 46.624C13.208 46.624 11.4 46.328 9.672 45.736C7.96 45.144 6.456 44.288 5.16 43.168C3.88 42.048 2.96 40.72 2.4 39.184L8.616 36.88C8.808 37.424 9.208 37.936 9.816 38.416C10.424 38.88 11.184 39.264 12.096 39.568C13.008 39.856 14.008 40 15.096 40C16.136 40 17.112 39.848 18.024 39.544C18.952 39.224 19.696 38.784 20.256 38.224C20.832 37.664 21.12 37.008 21.12 36.256C21.12 35.504 20.824 34.88 20.232 34.384C19.64 33.888 18.88 33.496 17.952 33.208C17.024 32.904 16.072 32.672 15.096 32.512C12.68 32.16 10.512 31.592 8.592 30.808C6.688 30.008 5.184 28.912 4.08 27.52C2.976 26.112 2.424 24.328 2.424 22.168C2.424 20.088 3.008 18.272 4.176 16.72C5.36 15.168 6.912 13.96 8.832 13.096C10.768 12.232 12.856 11.8 15.096 11.8C16.952 11.8 18.744 12.096 20.472 12.688C22.2 13.28 23.704 14.136 24.984 15.256C26.28 16.376 27.208 17.72 27.768 19.288L21.552 21.544C21.36 21 20.96 20.496 20.352 20.032C19.744 19.568 18.984 19.192 18.072 18.904C17.16 18.616 16.168 18.472 15.096 18.472C14.072 18.456 13.096 18.608 12.168 18.928C11.256 19.248 10.504 19.688 9.912 20.248C9.336 20.808 9.048 21.448 9.048 22.168C9.048 23.112 9.32 23.824 9.864 24.304C10.424 24.784 11.16 25.128 12.072 25.336C12.984 25.544 13.992 25.728 15.096 25.888C17.368 26.224 19.464 26.824 21.384 27.688C23.304 28.536 24.84 29.672 25.992 31.096C27.16 32.504 27.744 34.224 27.744 36.256C27.744 38.336 27.16 40.152 25.992 41.704C24.824 43.256 23.28 44.464 21.36 45.328C19.44 46.192 17.352 46.624 15.096 46.624ZM45.4673 28.624H41.1473V46H34.5233V28.624H31.2113V22H34.5233V14.464H41.1473V22H45.4673V28.624ZM49.8259 46L49.8019 22H56.4259L56.4499 23.776C57.2499 23.008 58.1859 22.408 59.2579 21.976C60.3459 21.544 61.4899 21.328 62.6899 21.328C63.5699 21.328 64.4499 21.456 65.3299 21.712L62.7139 28.408C62.1379 28.168 61.5539 28.048 60.9619 28.048C60.1299 28.048 59.3699 28.248 58.6819 28.648C57.9939 29.048 57.4499 29.592 57.0499 30.28C56.6499 30.952 56.4499 31.712 56.4499 32.56V46H49.8259ZM84.4335 22H91.0575V46H84.4095L84.0975 43.504C83.4735 44.432 82.6735 45.184 81.6975 45.76C80.7215 46.336 79.5775 46.624 78.2655 46.624C76.4735 46.624 74.8015 46.288 73.2495 45.616C71.6975 44.944 70.3295 44.016 69.1455 42.832C67.9615 41.648 67.0335 40.28 66.3615 38.728C65.7055 37.16 65.3775 35.48 65.3775 33.688C65.3775 31.976 65.6895 30.376 66.3135 28.888C66.9375 27.4 67.8175 26.088 68.9535 24.952C70.0895 23.816 71.3935 22.928 72.8655 22.288C74.3535 21.648 75.9535 21.328 77.6655 21.328C79.1375 21.328 80.4575 21.64 81.6255 22.264C82.8095 22.888 83.8415 23.68 84.7215 24.64L84.4335 22ZM78.0975 40.264C79.1855 40.264 80.1695 39.984 81.0495 39.424C81.9295 38.864 82.6255 38.112 83.1375 37.168C83.6495 36.208 83.9055 35.152 83.9055 34C83.9055 32.832 83.6495 31.776 83.1375 30.832C82.6255 29.888 81.9295 29.136 81.0495 28.576C80.1695 28.016 79.1855 27.736 78.0975 27.736C76.9935 27.736 75.9935 28.016 75.0975 28.576C74.2015 29.136 73.4895 29.896 72.9615 30.856C72.4335 31.8 72.1695 32.848 72.1695 34C72.1695 35.152 72.4335 36.208 72.9615 37.168C73.5055 38.112 74.2255 38.864 75.1215 39.424C76.0175 39.984 77.0095 40.264 78.0975 40.264ZM102.504 58H95.88V22H102.504V24.592C103.272 23.648 104.184 22.88 105.24 22.288C106.296 21.68 107.528 21.376 108.936 21.376C110.68 21.376 112.312 21.704 113.832 22.36C115.368 23.016 116.712 23.928 117.864 25.096C119.016 26.248 119.92 27.584 120.576 29.104C121.232 30.624 121.56 32.256 121.56 34C121.56 35.744 121.232 37.384 120.576 38.92C119.92 40.456 119.016 41.808 117.864 42.976C116.712 44.128 115.368 45.032 113.832 45.688C112.312 46.344 110.68 46.672 108.936 46.672C107.528 46.672 106.296 46.368 105.24 45.76C104.184 45.152 103.272 44.384 102.504 43.456V58ZM108.84 27.736C107.752 27.736 106.768 28.024 105.888 28.6C105.024 29.16 104.336 29.912 103.824 30.856C103.328 31.8 103.08 32.848 103.08 34C103.08 35.152 103.328 36.208 103.824 37.168C104.336 38.112 105.024 38.864 105.888 39.424C106.768 39.984 107.752 40.264 108.84 40.264C109.928 40.264 110.92 39.984 111.816 39.424C112.728 38.864 113.448 38.112 113.976 37.168C114.52 36.224 114.792 35.168 114.792 34C114.792 32.864 114.528 31.824 114 30.88C113.472 29.92 112.752 29.16 111.84 28.6C110.944 28.024 109.944 27.736 108.84 27.736ZM124.614 22H131.238V46H124.614V22ZM127.974 19.24C127.014 19.24 126.206 18.92 125.55 18.28C124.894 17.64 124.566 16.848 124.566 15.904C124.566 14.96 124.894 14.168 125.55 13.528C126.206 12.888 127.006 12.568 127.95 12.568C128.894 12.568 129.686 12.888 130.326 13.528C130.982 14.168 131.31 14.96 131.31 15.904C131.31 16.848 130.99 17.64 130.35 18.28C129.726 18.92 128.934 19.24 127.974 19.24ZM144.333 17.344V22H150.693V28.624H144.333V46H137.709V28.624H135.309V22H137.709V17.344C137.709 15.888 138.069 14.568 138.789 13.384C139.509 12.184 140.469 11.224 141.669 10.504C142.885 9.784 144.221 9.424 145.677 9.424C146.749 9.424 147.805 9.648 148.845 10.096C149.885 10.528 150.813 11.208 151.629 12.136L146.877 16.816C146.765 16.56 146.597 16.368 146.373 16.24C146.149 16.112 145.917 16.048 145.677 16.048C145.309 16.048 144.989 16.176 144.717 16.432C144.461 16.672 144.333 16.976 144.333 17.344ZM170.61 22H177.666L164.514 58H157.506L161.826 46L153.186 22H160.434L165.138 36.952L170.61 22Z" fill="white"/>
<rect x="195" y="36" width="61" height="22" rx="8" fill="#FFB454"/>
<g filter="url(#filter0_d_124_15)">
<path d="M211.84 51.5V41.7H215.41C215.928 41.7 216.395 41.8073 216.81 42.022C217.23 42.232 217.561 42.5353 217.804 42.932C218.051 43.324 218.175 43.7883 218.175 44.325C218.175 44.563 218.14 44.8033 218.07 45.046C218 45.2887 217.893 45.508 217.748 45.704C217.603 45.8953 217.417 46.0377 217.188 46.131C217.491 46.2057 217.739 46.341 217.93 46.537C218.121 46.733 218.271 46.964 218.378 47.23C218.485 47.4913 218.558 47.7597 218.595 48.035C218.637 48.3057 218.658 48.5577 218.658 48.791C218.658 49.309 218.53 49.771 218.273 50.177C218.016 50.583 217.671 50.905 217.237 51.143C216.808 51.381 216.332 51.5 215.809 51.5H211.84ZM213.548 50.037H215.634C215.914 50.037 216.166 49.9693 216.39 49.834C216.614 49.6987 216.794 49.512 216.929 49.274C217.064 49.036 217.132 48.7653 217.132 48.462C217.132 48.2007 217.064 47.9533 216.929 47.72C216.794 47.4867 216.614 47.2977 216.39 47.153C216.166 47.0083 215.914 46.936 215.634 46.936H213.548V50.037ZM213.548 45.494H215.214C215.559 45.494 215.853 45.3867 216.096 45.172C216.343 44.9573 216.467 44.6727 216.467 44.318C216.467 43.94 216.343 43.6553 216.096 43.464C215.853 43.268 215.559 43.17 215.214 43.17H213.548V45.494ZM222.768 51.682C222.124 51.682 221.536 51.5163 221.004 51.185C220.476 50.8537 220.054 50.408 219.737 49.848C219.424 49.288 219.268 48.6697 219.268 47.993C219.268 47.4843 219.359 47.0083 219.541 46.565C219.723 46.117 219.972 45.725 220.29 45.389C220.612 45.0483 220.985 44.7823 221.41 44.591C221.834 44.3997 222.287 44.304 222.768 44.304C223.314 44.304 223.813 44.4207 224.266 44.654C224.723 44.8827 225.11 45.1977 225.428 45.599C225.745 46.0003 225.976 46.4577 226.121 46.971C226.265 47.4843 226.298 48.021 226.219 48.581H221.102C221.167 48.8423 221.274 49.078 221.424 49.288C221.573 49.4933 221.762 49.659 221.991 49.785C222.219 49.9063 222.478 49.9693 222.768 49.974C223.066 49.9787 223.337 49.9087 223.58 49.764C223.827 49.6147 224.032 49.414 224.196 49.162L225.939 49.568C225.654 50.1887 225.229 50.6973 224.665 51.094C224.1 51.486 223.468 51.682 222.768 51.682ZM221.046 47.3H224.49C224.438 47.02 224.329 46.768 224.161 46.544C223.997 46.3153 223.794 46.1333 223.552 45.998C223.309 45.8627 223.048 45.795 222.768 45.795C222.488 45.795 222.229 45.8627 221.991 45.998C221.753 46.1287 221.55 46.3083 221.382 46.537C221.218 46.761 221.106 47.0153 221.046 47.3ZM231.11 46.208H229.752V51.5H228.044V46.208H227.008V44.5H228.044V42.302H229.752V44.5H231.11V46.208ZM237.489 44.5H239.197V51.5H237.489L237.412 50.632C237.221 50.9447 236.966 51.199 236.649 51.395C236.336 51.5863 235.965 51.682 235.536 51.682C235.018 51.682 234.533 51.584 234.08 51.388C233.627 51.192 233.228 50.9213 232.883 50.576C232.542 50.2307 232.274 49.8317 232.078 49.379C231.887 48.9263 231.791 48.441 231.791 47.923C231.791 47.4237 231.882 46.9547 232.064 46.516C232.251 46.0773 232.51 45.6923 232.841 45.361C233.172 45.0297 233.555 44.7707 233.989 44.584C234.423 44.3973 234.89 44.304 235.389 44.304C235.851 44.304 236.264 44.4067 236.628 44.612C236.997 44.8173 237.309 45.0787 237.566 45.396L237.489 44.5ZM235.494 50.037C235.858 50.037 236.18 49.946 236.46 49.764C236.74 49.582 236.959 49.337 237.118 49.029C237.277 48.7163 237.356 48.3733 237.356 48C237.356 47.622 237.277 47.279 237.118 46.971C236.959 46.6583 236.738 46.411 236.453 46.229C236.173 46.047 235.853 45.956 235.494 45.956C235.135 45.956 234.806 46.0493 234.507 46.236C234.213 46.418 233.977 46.663 233.8 46.971C233.627 47.279 233.541 47.622 233.541 48C233.541 48.378 233.63 48.721 233.807 49.029C233.984 49.337 234.22 49.582 234.514 49.764C234.813 49.946 235.139 50.037 235.494 50.037Z" fill="white"/>
</g>
<defs>
<filter id="filter0_d_124_15" x="203.84" y="33.7" width="43.3571" height="25.982" filterUnits="userSpaceOnUse" color-interpolation-filters="sRGB">
<feFlood flood-opacity="0" result="BackgroundImageFix"/>
<feColorMatrix in="SourceAlpha" type="matrix" values="0 0 0 0 0 0 0 0 0 0 0 0 0 0 0 0 0 0 127 0" result="hardAlpha"/>
<feOffset/>
<feGaussianBlur stdDeviation="4"/>
<feComposite in2="hardAlpha" operator="out"/>
<feColorMatrix type="matrix" values="0 0 0 0 0 0 0 0 0 0 0 0 0 0 0 0 0 0 0.75 0"/>
<feBlend mode="normal" in2="BackgroundImageFix" result="effect1_dropShadow_124_15"/>
<feBlend mode="normal" in="SourceGraphic" in2="effect1_dropShadow_124_15" result="shape"/>
</filter>
<clipPath id="clip0_124_15">
<rect width="24" height="32" fill="white" transform="translate(171 1)"/>
</clipPath>
</defs>
</svg>
